<svg xmlns="http://www.w3.org/2000/svg" enable-background="new 0 0 3800 3000" viewBox="0 0 3800 3000"><path fill="#e7f0fe" d="M2605.18,352.89c-341.33,67.82-599.86,333.03-929.52,439.96c-504.53,159.42-1232.75,295.91-1329.75,854.26
		C144.3,2807.64,1959.08,2991.26,2595.23,2507.47c816.44-620.9,220.4-1289.93,771.85-1789.91
		C3776.11,346.69,2845.63,284.59,2605.18,352.89z"/><path fill="#a0c5ff" d="M1746.47,823.17c129.92-95.25,166.82-253.34,233.73-144.3c66.97,109.03-70.02,336.37,63.66,364.85
			c133.73,28.39,96.1-228.21,193.42-177.52c97.37,50.59-35.48,274.19,11.54,405.8c0.71,1.99,1.57,3.57,2.36,5.36
			c-53.92,31.38-109.09,60.64-163.95,90.41c-32.98-17-58.61-36.74-66.18-69.98c-28.32-123.96-30.4-199.23-296.36-337.58
			c-178.95-93.08-216.65-255.7-222.24-352.22C1597.88,535.34,1626.81,910.93,1746.47,823.17z"/><path fill="#5d74e4" d="M1502.44,607.99c5.59,96.52,43.3,259.14,222.24,352.22c265.96,138.35,268.04,213.61,296.36,337.58
			c7.57,33.25,33.2,52.98,66.18,69.98c-34.19,18.56-68.22,37.38-101.67,57.16c-39.69-65.49-265.26-64.63-328.08-153.44
			c-78.35-110.84,84.16-197.35,26.81-241.64c-57.34-44.28-325.23-222.72-207.99-392.63
			C1485.53,623.83,1494.22,614.24,1502.44,607.99z"/><path fill="#a0c5ff" d="M665.17,2367.34c33.65-144.55-35.43-277.2,76.78-241.13c112.25,36.02,152.93,277.14,263.46,216.83
			c110.51-60.41-69.78-217.19,28.66-240.17c98.42-23.07,139.75,212.95,251.6,276.73c1.69,0.97,3.24,1.55,4.87,2.33
			c-18.86,54.29-39.86,107.85-60.34,161.59c-33.26,7.91-63.02,9.49-88.26-9.2c-94.19-69.65-140.82-121.02-409.75-58.11
			c-180.95,42.33-304.9-48.71-366.73-112.82C388.57,2255.33,634.19,2500.5,665.17,2367.34z"/><path fill="#5d74e4" d="M365.46,2363.39c61.84,64.11,185.79,155.15,366.73,112.82c268.93-62.91,315.56-11.55,409.75,58.11
			c25.25,18.69,55.01,17.11,88.26,9.2c-12.76,33.49-25.25,67.07-36.76,100.98c-67.05-21.96-224.2,114.02-321.41,89.64
			c-121.28-30.45-59.62-188.45-126.27-184.99c-66.66,3.46-361,39.5-381.02-149.62C363.14,2384.61,363.46,2372.69,365.46,2363.39z"/><path fill="#a0c5ff" d="M2608.7,1625.69c73.27,269.24,23.1,318.18-43.81,415.81c-65.48,95.41,142.83,241.36-55.54,414.69l-8.83,30.3
			c0,0,401.4,119.39,454.62-60.91c53.27-180.27-289.21-129.37-228.81-244.58c60.33-115.24,297.14-165.53,270.27-264.06
			c-26.77-98.56-178.52,89.16-243.52-20.23c-64.91-109.41,177.07-159.23,209.36-273.86c32.35-114.6-99.08-40.04-246.24-68.77
			c-135.56-26.45,103.07-283.33-6.88-302.75C2646.82,1316.09,2559.41,1444.54,2608.7,1625.69z"/><path fill="#5d74e4" d="M2353.36 1776.23c-26.32 123.65 203.42 332.74 52.37 354.45-151.11 21.68-125.24 194.56-125.24 194.56l228.87 130.95c198.37-173.34-9.94-319.28 55.54-414.69 66.91-97.63 117.08-146.56 43.81-415.81-49.3-181.15 38.12-309.6 100.61-374.36-9.46-1.68-21.51-1.57-36.51.58-190.22 27.07-143.15 322.94-137.25 390.12C2541.47 1709.21 2379.71 1652.68 2353.36 1776.23zM788.28 2486.28c-.72-.17-37.94-9.1-80.66-33.26-.1-.22-.1-.46-.24-.65-5.34-7.25-4.67-24.16-3.68-36.34 11.01-11.73 42.23-47.99 37.8-77.66-5.37-35.91-70.29-24.84-68.2 7.45 1.95 30.22 9.86 47.25 23.69 69.48-.83 10.01-1.36 22.52 1.1 32.13-36.92-22.52-76.17-56.42-98.65-105.79-6-13.19-12.75-24.76-19.93-35.04 6.19-14.35 23.63-59.76 9.19-86.37-17.31-31.91-74.54.67-61.55 30.3 1.3 2.96 2.62 5.65 3.95 8.3-24.51-16.31-48.76-23.59-66.22-26.8-6.45-5.4-45.75-36.99-74.66-30.21-31.57 7.41-16.98 64.4 11.62 60.18 25.41-3.75 39.85-11.43 57.31-24.11 19.49 3.02 50.61 11.58 80.4 35.54 8.53 12.74 18.3 22.1 30.88 32.15 8.3 11.1 16.06 23.91 22.86 38.85 7.45 16.36 16.71 31 27.07 44.19-16.08-4.06-39.71-4.04-52.73-3.62-14.23-8.82-55.14-31.66-82.98-21.7-34.18 12.22-10.75 73.77 20.53 65.46 29.42-7.81 44.65-19.03 63.92-37.06 23.02-.62 53.65 1 60.6 8.31.1.11.24.15.35.24 62.68 70.16 155.59 92.34 156.73 92.6 1.53.36 3.07-.4 3.76-1.75.12-.24.22-.5.28-.78C791.23 2488.5 790.09 2486.7 788.28 2486.28z"/><path fill="#5d74e4" d="M2713.91,2231.4c-1.2,25.2-32.51,50.05-44.09,58.41c-3.9,10.4-11.57,29.05-20,40.42
		c13.77-3.88,28.34-6.43,43.66-6.99c13.99-0.51,26.62-2.46,38.08-5.4c12.02-6.65,22.58-11.32,35.4-13.91
		c28.59-15.72,45.45-37.48,54.17-51.87c-4.33-17.9-5.69-31.79-0.39-53.05c5.96-23.93,55.67-16.93,51.25,10.39
		c-4.05,25.01-41.74,45.74-48.1,49.07c-8.21,12.73-21.83,29.49-42.66,43.52c2.52-0.19,5.07-0.36,7.83-0.42
		c27.6-0.62,34.7,55.12,3.9,58.4c-25.69,2.74-55.84-25.77-65.15-35.32c-10.44,2.33-21.76,3.89-34.12,4.34
		c-46.25,1.69-85.76,21.63-115.52,43.44c8.37,1.18,18.08,5.67,25.7,9.57c22.03-3.68,38.03-4.38,62.51,3.9
		c26.15,8.85,13.78,63.66-16.28,56.22c-24.84-6.14-43.3-42.56-48.98-55.05c-9.29-4.74-22.41-10.76-29.86-8.9
		c-0.2,0.05-0.39-0.03-0.6-0.02c-32.94,25.85-52.09,52.31-52.45,52.82c-0.92,1.3-2.71,1.6-4.01,0.68c-0.2-0.14-0.38-0.3-0.52-0.48
		c-0.84-0.98-0.94-2.44-0.16-3.53c0.58-0.82,48.27-66.9,123.99-93.54c0.11-0.06,0.19-0.15,0.3-0.2c8.02-3.1,19.26-26.74,26.25-45.1
		c-7.96-21.06-11.86-36.72-8.46-62.47C2659.21,2198.94,2715.38,2200.46,2713.91,2231.4z"/><path fill="#fff" d="M2721.6,1899.69c3.97,23.38-19.79,52.5-28.74,62.5c-1.49,10.34-4.78,29-10.24,41.13
		c11.86-6.33,24.73-11.6,38.68-15.19c7.73-1.99,14.84-4.41,21.49-7.09c-9.99-15.89-15.94-29.24-17.84-51.72
		c-2.18-25.86,49.69-35.76,54.56-7.06c2.6,15.32-6.69,33.06-15.92,46.3c6.66-5.17,13.35-9.45,21.29-12.94
		c23.09-20.18,34.2-43.55,39.31-58.52c-7.58-15.56-11.62-28.04-11.03-48.63c0.67-23.17,47.71-26.73,49.14-0.76
		c1.31,23.77-29.13,50.39-34.3,54.73c-4.98,13.34-14.11,31.47-30.42,48.54c2.28-0.68,4.58-1.35,7.11-1.96
		c25.22-6.12,42.95,43.63,15.33,52.84c-23.03,7.68-56.45-12.44-66.92-19.33c-9.11,4.24-19.2,7.94-30.45,10.84
		c-2.94,0.76-5.83,1.61-8.67,2.51c8.51-1.32,17.64-1.5,28.81-0.26c25.79,2.87,25.46,55.68-3.65,54.9
		c-23.4-0.63-46.97-28.75-55.34-39.78c0,0-17.33,2.21-58.49,45.74c7.93-0.6,17.74,1.57,25.52,3.62
		c19.49-7.81,34.04-11.67,58.18-8.99c25.8,2.87,25.46,55.68-3.65,54.9c-24.05-0.65-48.31-30.37-56.04-40.7
		c-9.49-2.49-22.74-5.37-29.21-2.17c-0.18,0.09-0.37,0.05-0.55,0.1c-25.05,30.36-37.31,58.5-37.54,59.04
		c-0.58,1.37-2.17,2.02-3.55,1.43c-0.21-0.09-0.41-0.2-0.58-0.33c-0.96-0.73-1.35-2.05-0.85-3.21
		c0.37-0.87,30.87-71.13,95.04-110.82c0.09-0.08,0.14-0.18,0.24-0.24c6.74-4.46,12.3-28.43,15.03-46.69
		c-11.55-17.74-18.27-31.33-20.33-55.66C2664.85,1880.88,2716.73,1870.98,2721.6,1899.69z"/><path fill="#1732ac" d="M1785.38,952.39c0,0-358.49,140.31-436.04,250.72c-77.55,110.41-140.37,377.65,12.5,391.5"/><path fill="#000141" d="M1785.38,952.39c0,0-358.49,140.31-436.04,250.72c-77.55,110.41-140.37,377.65,12.5,391.5
		C1514.71,1608.47,1785.38,952.39,1785.38,952.39z" opacity=".25"/><path fill="#1732ac" d="M2595.21,2507.46c-47.59,77.67-114.05,140.32-190.25,185.9c-2.5,1.52-5.06,3.05-7.61,4.41
			c-439.72,256.65-1230.74,27.3-1309.82-103.39c21.86-1632.34,1283.66-2522.23,1482.23-554.65
			C2583.95,2180.7,2592.76,2336.36,2595.21,2507.46z"/><path fill="#201135" d="M1767.78,1052.62c0.25,67.26,68.4,104.25,152.21,82.62c83.81-21.63,151.55-93.68,151.29-160.94
						c-0.26-67.26-68.4-104.25-152.21-82.62C1835.26,913.31,1767.52,985.36,1767.78,1052.62z" opacity=".1"/><path fill="#000141" d="M1799.39,1023.12c0.22,58.21,59.2,90.22,131.74,71.5c72.54-18.72,131.16-81.08,130.94-139.29
						c-0.22-58.21-59.2-90.22-131.74-71.5C1857.8,902.54,1799.17,964.91,1799.39,1023.12z"/><path fill="#fececc" d="M1854.18,1010.74c37.99,26.49,148.09-26.44,173.38-65.24c7.34-11.26-1.26-22.81-3.11-53.68
					c-3.69-64.46-9.42-164.16-9.42-166.79l-159.5,80.48l-0.68,106.21C1854.86,911.72,1833.87,996.58,1854.18,1010.74z"/><path fill="#201135" d="M1854.86,911.72l0.68,1.94c0,0,18.06-15.24,54.07-27.67c36.11-12.52,113.78,12.43,113.78,12.43l1.07-6.6
					c-3.69-64.46-9.42-164.16-9.42-166.79l-159.5,80.48L1854.86,911.72z" opacity=".1"/><path fill="#000141" d="M1755.72,340.91c0,0-81.13,122.74-22.88,218.43c58.25,95.69,397.34,31.2,397.34,31.2
					s153.94-208.72,16.64-269.05c0,0-55.47-115.11-143.54-103.32C1851.35,238.51,1755.72,340.91,1755.72,340.91z"/><path fill="#fececc" d="M1779.29,888.7c42.93,29.99,285.97-145.89,327.32-199.69c4.65-6.06,8.34-14.31,11.32-24.23
					c47.31-0.09,101.91-71.89,77.07-120.25c-17.38-33.88-48.72-24.93-67.06-15.62c-2.28-67.68-10.27-129.73-10.27-129.73
					c-11.94-84.09-360.85-84.09-372.79,0C1744.88,399.17,1650.72,798.89,1779.29,888.7z"/><path fill="#201135" d="M2157.27,537.95c14.22-0.07,37.97,16.33,23.71,51.71c-14.25,35.38-41.76,50.17-41.76,50.17
					s38.66-32.79,33.46-61.33C2167.49,549.95,2145.23,538.01,2157.27,537.95z" opacity=".1"/><path fill="#000141" d="M2128.47,524.86c0,0-2.27,51.07-32.96,51.3c-11,0.08-15.73-168.95-29.71-168.98
					c-70.6-0.14-208.11-4.06-316.13-12.53c-149.03-11.69,30.17-217.72,189.86-208.43c73,4.24,148.9,41.72,180.12,129.05
					C2142.29,378.58,2126.91,454.73,2128.47,524.86z"/><path fill="#000141" d="M1987.37 612.89c1.86 11.04-10.17 22.27-26.86 25.08-16.69 2.81-31.74-3.85-33.6-14.88-1.86-11.03 10.16-22.26 26.86-25.08C1970.47 595.2 1985.5 601.86 1987.37 612.89zM1798.26 613.94c1.86 11.03-10.16 22.26-26.86 25.07-16.69 2.82-31.74-3.85-33.59-14.88-1.86-11.03 10.17-22.26 26.86-25.07C1781.36 596.24 1796.39 602.9 1798.26 613.94z" opacity=".05"/><path fill="#000141" d="M1806.27 510.2c-1.62 0-3.19-.84-4.05-2.34-.76-1.3-18.82-31.13-63.08-11.51-2.38 1.04-5.13-.02-6.16-2.38-1.04-2.35.01-5.11 2.37-6.16 52.19-23.14 74.74 15.01 74.96 15.39 1.28 2.24.5 5.09-1.74 6.37C1807.85 510 1807.05 510.2 1806.27 510.2zM1896.8 511.03c-.58 0-1.16-.11-1.72-.34-2.4-.95-3.57-3.66-2.61-6.05.17-.42 17.14-41.13 78.5-28 2.52.53 4.12 3.02 3.58 5.54-.54 2.51-2.99 4.14-5.54 3.59-53.76-11.53-67.74 21.98-67.87 22.32C1900.41 509.91 1898.65 511.03 1896.8 511.03zM1843.65 627.83c-1.61 0-3.2-.23-4.76-.68-9.89-2.88-14.08-14.03-14.25-14.49-.51-1.39-.33-2.92.47-4.16 16.74-25.7 12.29-60.41 12.25-60.75-.34-2.56 1.45-4.91 4-5.25 2.62-.37 4.91 1.45 5.25 4 .21 1.52 4.7 36.66-12.29 64.89 1.34 2.44 3.85 5.84 7.22 6.81 3.14.88 6.99-.34 11.4-3.72 2.05-1.56 4.98-1.17 6.54.87 1.57 2.05 1.18 4.97-.87 6.54C1853.43 625.85 1848.42 627.83 1843.65 627.83z"/><path fill="#fcfaf7" d="M1760.84,716.3c0,0,46.53,35.35,110.84,21.57C1879.36,765.03,1796.11,812.21,1760.84,716.3z"/><path fill="#000141" d="M1792.11 547.82c0 14.54-8.07 26.33-18.01 26.33-9.95 0-18.02-11.79-18.02-26.33 0-14.53 8.07-26.32 18.02-26.32C1784.04 521.5 1792.11 533.29 1792.11 547.82zM1954.19 547.82c0 14.54-8.06 26.33-18.01 26.33-9.95 0-18.01-11.79-18.01-26.33 0-14.53 8.06-26.32 18.01-26.32C1946.14 521.5 1954.19 533.29 1954.19 547.82z"/><path fill="#000141" d="M1813.45,796.1c-4.81-1.1-7.77-2.52-8.08-2.68c-1.16-0.57-1.63-1.96-1.06-3.12
				c0.57-1.15,1.97-1.63,3.12-1.07c0.18,0.1,19.13,9.08,40.82-2.49c1.16-0.57,2.56-0.15,3.16,0.97c0.6,1.14,0.17,2.55-0.96,3.16
				C1835.37,798.91,1821.69,797.98,1813.45,796.1z" opacity=".05"/><path fill="#000141" d="M2595.21,2507.46c-47.59,77.67-114.05,140.32-190.25,185.9c-2.5,1.52-5.06,3.05-7.61,4.41
		c-15.61-27.19-28.28-51.51-30.95-60.7c-14.3-49.66,23.22-97.68,38.78-142.5c51.23-147.66-393.88-24.64-429.77,86.2
		c-128.08,26.49-666.85,107.91-727.76-23.17c100.67-38.45,211.84-15.88,316.54-12.29c120.52,2.5,257.58,1.25,355.97-77.67
		c75.11-70.32,110.14-230.22,84.08-328.12c-30.78-71.79-127.16-57.82-187.58-87.51c137.06-71.52,121.34-127.32,292.99-177.3
		c90.5-36.87,11.1-143.86,3.92-209.88c-8.97-113.24-32.74-241.59,21.21-346.67c49.28,243.6,222.5,435.86,350.69,639.6
		c17.57,36.44,48.3,64.34,84.3,81.96C2583.95,2180.7,2592.76,2336.36,2595.21,2507.46z" opacity=".25"/><g><path fill="#e7f0fe" d="M697.16 922.67c0 4.97 4.03 9.01 9.01 9.01s9.01-4.03 9.01-9.01c0-4.97-4.03-9.01-9.01-9.01S697.16 917.69 697.16 922.67zM628.1 922.67c0 4.97 4.03 9.01 9.01 9.01 4.97 0 9.01-4.03 9.01-9.01 0-4.97-4.03-9.01-9.01-9.01C632.13 913.66 628.1 917.69 628.1 922.67zM559.04 922.67c0 4.97 4.03 9.01 9.01 9.01 4.97 0 9.01-4.03 9.01-9.01 0-4.97-4.03-9.01-9.01-9.01C563.07 913.66 559.04 917.69 559.04 922.67zM489.98 922.67c0 4.97 4.03 9.01 9.01 9.01 4.97 0 9.01-4.03 9.01-9.01 0-4.97-4.03-9.01-9.01-9.01C494.01 913.66 489.98 917.69 489.98 922.67zM733.25 961.54c0 4.97 4.03 9.01 9.01 9.01 4.97 0 9.01-4.03 9.01-9.01 0-4.97-4.03-9.01-9.01-9.01C737.29 952.53 733.25 956.57 733.25 961.54zM664.2 961.54c0 4.97 4.03 9.01 9.01 9.01 4.97 0 9.01-4.03 9.01-9.01 0-4.97-4.03-9.01-9.01-9.01C668.23 952.53 664.2 956.57 664.2 961.54zM595.14 961.54c0 4.97 4.03 9.01 9.01 9.01 4.97 0 9.01-4.03 9.01-9.01 0-4.97-4.03-9.01-9.01-9.01C599.17 952.53 595.14 956.57 595.14 961.54zM526.08 961.54c0 4.97 4.03 9.01 9.01 9.01 4.97 0 9.01-4.03 9.01-9.01 0-4.97-4.03-9.01-9.01-9.01C530.11 952.53 526.08 956.57 526.08 961.54z"/></g><g><circle cx="2787.14" cy="2624.13" r="7.87" fill="#e7f0fe"/><circle cx="2726.76" cy="2624.13" r="7.87" fill="#e7f0fe"/><circle cx="2666.39" cy="2624.13" r="7.87" fill="#e7f0fe"/><path fill="#e7f0fe" d="M2598.14 2624.13c0 4.35 3.53 7.87 7.88 7.87 4.35 0 7.87-3.53 7.87-7.87 0-4.35-3.53-7.87-7.87-7.87C2601.66 2616.26 2598.14 2619.78 2598.14 2624.13zM2810.83 2658.12c0 4.35 3.53 7.87 7.87 7.87 4.35 0 7.87-3.53 7.87-7.87 0-4.35-3.53-7.87-7.87-7.87C2814.35 2650.24 2810.83 2653.77 2810.83 2658.12zM2750.45 2658.12c0 4.35 3.53 7.87 7.87 7.87 4.35 0 7.87-3.53 7.87-7.87 0-4.35-3.53-7.87-7.87-7.87C2753.98 2650.24 2750.45 2653.77 2750.45 2658.12zM2690.07 2658.12c0 4.35 3.53 7.87 7.87 7.87 4.35 0 7.87-3.53 7.87-7.87 0-4.35-3.53-7.87-7.87-7.87C2693.6 2650.24 2690.07 2653.77 2690.07 2658.12zM2629.7 2658.12c0 4.35 3.53 7.87 7.87 7.87 4.35 0 7.87-3.53 7.87-7.87 0-4.35-3.53-7.87-7.87-7.87C2633.22 2650.24 2629.7 2653.77 2629.7 2658.12z"/></g><g><path fill="#fff" d="M2884.94 1258.36c3.89 0 7.04-3.15 7.04-7.04 0-3.89-3.15-7.04-7.04-7.04-3.89 0-7.04 3.15-7.04 7.04C2877.91 1255.21 2881.06 1258.36 2884.94 1258.36zM2884.94 1312.32c3.89 0 7.04-3.15 7.04-7.04 0-3.89-3.15-7.04-7.04-7.04-3.89 0-7.04 3.15-7.04 7.04C2877.91 1309.17 2881.06 1312.32 2884.94 1312.32zM2884.94 1366.28c3.89 0 7.04-3.15 7.04-7.04 0-3.89-3.15-7.04-7.04-7.04-3.89 0-7.04 3.15-7.04 7.04C2877.91 1363.13 2881.06 1366.28 2884.94 1366.28zM2884.94 1420.24c3.89 0 7.04-3.15 7.04-7.04 0-3.89-3.15-7.04-7.04-7.04-3.89 0-7.04 3.15-7.04 7.04C2877.91 1417.09 2881.06 1420.24 2884.94 1420.24zM2915.31 1230.15c3.89 0 7.04-3.15 7.04-7.04 0-3.89-3.15-7.04-7.04-7.04-3.89 0-7.04 3.15-7.04 7.04C2908.28 1227 2911.43 1230.15 2915.31 1230.15zM2915.31 1284.11c3.89 0 7.04-3.15 7.04-7.04 0-3.89-3.15-7.04-7.04-7.04-3.89 0-7.04 3.15-7.04 7.04C2908.28 1280.96 2911.43 1284.11 2915.31 1284.11zM2915.31 1338.07c3.89 0 7.04-3.15 7.04-7.04 0-3.89-3.15-7.04-7.04-7.04-3.89 0-7.04 3.15-7.04 7.04C2908.28 1334.92 2911.43 1338.07 2915.31 1338.07zM2915.31 1392.03c3.89 0 7.04-3.15 7.04-7.04 0-3.89-3.15-7.04-7.04-7.04-3.89 0-7.04 3.15-7.04 7.04C2908.28 1388.88 2911.43 1392.03 2915.31 1392.03z"/></g><path fill="#eab2b2" d="M516.09,1502.97c0,0,10.03-6.28,34.24-19.94c24.21-13.66,46.26-61.43,58.84-54.28
		c12.58,7.15,6.82,77.51-22.36,101.16C557.64,1553.55,518.6,1524.4,516.09,1502.97z"/><g><path fill="#eab2b2" d="M2008.78,2333.76c0,0-1.84-11.69-7.43-38.92c-5.59-27.23,15.98-75.22,2.33-80.02
			c-13.65-4.8-62.95,45.74-61.64,83.27C1943.34,2335.62,1990.96,2345.94,2008.78,2333.76z"/><path fill="#a0c5ff" d="M2093.67,1846.74c-2.54,831.54-1102.62,1098.25-1494.03,388.1c-134.67-234.39-129.75-561.32,14.29-791.77
			C1010.68,759.62,2097.65,1050.36,2093.67,1846.74z"/><path fill="#000141" d="M1959.55,1403.41c-10.39,39.64-1.23,79.38,12.48,117.1c6.92,19.05,14.6,37.84,20.78,57.16
			c5.79,18.11,10.51,36.66,14.93,55.15c8.86,37.09,16.54,77.05,7.39,114.81c-7.82,32.26-26.32,59.77-39.01,90.06
			c-6.95,16.6-11.6,33.96-12.87,51.94c-1.39,19.65,1.77,39.71,4.01,59.21c4.37,38.02,9.48,77.06,2.13,115.04
			c-7.09,36.64-26.78,71.12-56.66,93.88c-28.94,22.04-64.38,32.78-98.46,43.99c-8.99,2.96-18.34,5.54-26.9,9.58
			c-7.25,3.43-14.52,6.84-21.74,10.34c-12.19,5.91-24.48,11.98-35.65,19.7c-19.41,13.42-30.57,31.51-32.67,55.16
			c-2.69,30.32,5.47,60,10.68,89.58c3.36,19.11,4.72,38.77-8.1,54.82c-7.55,9.45-17.67,16.54-27.88,22.84
			c-14.27,8.8-29.35,16.49-44.57,23.51c-28.88,13.31-59.47,24.21-85.85,42.3c-26.89,18.44-45.95,44.68-51.19,77.23
			c-0.69,4.31-1.11,8.63-1.42,12.96c325.78-80.75,603.43-355.77,604.7-773.03C2094.54,1673.39,2043.7,1524.01,1959.55,1403.41z" opacity=".1"/><ellipse cx="1297.5" cy="1851.42" fill="#5d74e4" rx="675.45" ry="675.44" transform="rotate(-45.001 1297.483 1851.444)"/><path fill="#fff" d="M683.45,1856.02c-1.18-203.04,96.28-383.58,247.42-496.24c45.02-33.6,94.81-61.09,148.1-81.35
			c23.9-9.2,48.45-16.79,73.67-22.87c45.36-11.05,92.58-16.95,141.23-17.23c63.55-0.37,124.89,8.88,182.6,26.46
			c250.54,76.21,433.48,308.41,435.09,584.06c0.56,95.92-20.92,186.67-59.61,267.71c-47.43,99.44-120.84,184.12-211.54,245.29
			c-21.29,14.37-43.43,27.44-66.57,39.02c-49.7,25.1-103.43,43.76-159.9,54.56c-36.54,7.01-74.28,10.79-112.91,11.02
			C961.95,2468.42,685.43,2195.12,683.45,1856.02z"/><path fill="#e7f0fe" d="M1911.56,1848.82c0.55,95.96-20.91,186.69-59.63,267.71c-47.43,99.44-120.84,184.13-211.5,245.34
			c-21.28,14.33-43.47,27.44-66.58,38.96c-49.69,25.12-103.46,43.78-159.92,54.57c-2.25,0.43-4.51,0.85-6.83,1.22
			c19.2-10.12,37.74-21.34,55.66-33.41c90.72-61.21,164.13-145.9,211.56-245.34c38.65-81.03,60.18-171.75,59.57-267.65
			c-1.59-275.7-184.55-507.87-435.07-584.08c-57.74-17.56-119.07-26.83-182.6-26.46c-36.03,0.24-71.27,3.48-105.54,9.63
			c21.95-11.65,44.81-22.01,68.29-30.91c23.9-9.14,48.47-16.76,73.65-22.86c45.36-11.03,92.61-16.95,141.26-17.19
			c63.53-0.37,124.87,8.84,182.6,26.46C1727.01,1341.01,1909.97,1573.18,1911.56,1848.82z"/><path fill="#a0c5ff" d="M744.12 1916.05L744.12 1916.05c-.12-1.06-.27-2.1-.39-3.16-.12-1.05-.2-2.11-.31-3.16l-15 1.66 0 0 0 0 .7 6.31L744.12 1916.05 744.12 1916.05zM1625.11 2302.2l8.87 12.07 5.12-3.76-8.89-12.09C1628.52 2299.68 1626.82 2300.95 1625.11 2302.2z"/><polygon fill="#a0c5ff" points="763.8 1857.71 763.76 1851.36 763.76 1851.36 725.27 1851.58 725.27 1851.58 725.31 1857.94 725.31 1857.94 763.8 1857.72"/><path fill="#a0c5ff" d="M1670.43 2265.49l10.08 11.07 4.7-4.28-10.11-11.09C1673.56 2262.63 1672 2264.07 1670.43 2265.49zM752.43 1735.64L752.43 1735.64C752.43 1735.64 752.43 1735.64 752.43 1735.64l-14.69-3.04-1.28 6.22 14.67 3.03C751.54 1739.78 751.99 1737.71 752.43 1735.64zM753.9 1973.54L753.9 1973.54c-.23-1.03-.49-2.06-.72-3.09-.23-1.04-.42-2.08-.64-3.12l-14.74 3.22 0 0 0 0 1.35 6.21L753.9 1973.54 753.9 1973.54zM834.65 2187.9l3.76 5.12 12.08-8.89c-1.27-1.7-2.54-3.39-3.78-5.1L834.65 2187.9zM961.28 2314.46l5.17 3.7 8.75-12.19c-1.73-1.22-3.46-2.44-5.18-3.68L961.28 2314.46z"/><rect width="6.35" height="38.5" x="1015.04" y="1354.91" fill="#a0c5ff" transform="rotate(-30.34 1018.253 1374.213)"/><path fill="#a0c5ff" d="M914.72 2276.78l4.75 4.23 9.97-11.21c-1.59-1.39-3.18-2.79-4.76-4.2L914.72 2276.78zM872.36 2234.44l4.28 4.7 11.09-10.11c-1.44-1.55-2.88-3.1-4.3-4.68L872.36 2234.44zM1711.67 2224.24l11.19 9.96 4.23-4.75-11.21-9.98C1714.48 2221.06 1713.09 2222.66 1711.67 2224.24zM743.31 1793.25l-14.93-1.48-.63 6.32 14.91 1.48C742.86 1797.46 743.09 1795.36 743.31 1793.25zM765.57 1685.35c.63-2.02 1.29-4.04 1.95-6.04l0 0c0-.01 0-.01 0-.01l-14.29-4.55-1.93 6.05 0 0 0 0L765.57 1685.35zM1748.37 2178.9l12.17 8.73 3.71-5.16-12.19-8.75C1750.83 2175.45 1749.61 2177.19 1748.37 2178.9z"/><polygon fill="#a0c5ff" points="832.15 1590.02 835.3 1584.5 801.85 1565.45 801.85 1565.45 801.85 1565.45 799.86 1568.95 798.7 1570.97 798.7 1570.97 798.7 1570.97"/><path fill="#a0c5ff" d="M1826.39 1676.15c.33 1.01.63 2.02.96 3.03l14.32-4.75 0 0 0 0-2-6.03-14.32 4.74c0 0 0 0 0 0h0C1825.69 1674.15 1826.06 1675.14 1826.39 1676.15zM788.41 1624.85l-13.74-6.02-2.55 5.82 13.72 6.01C786.68 1628.71 787.55 1626.78 788.41 1624.85zM1841.1 1729.3L1841.1 1729.3c.23 1.03.49 2.06.71 3.1.23 1.04.42 2.07.64 3.11l14.74-3.22v0l0 0-1.36-6.21L1841.1 1729.3 1841.1 1729.3z"/><polygon fill="#a0c5ff" points="1023.61 2325.86 1011.53 2347.07 1017.05 2350.21 1036.1 2316.76 1030.58 2313.62"/><path fill="#a0c5ff" d="M1125.38 2381.4l-4.55 14.29 6.05 1.93 4.55-14.27 0 0v0C1129.41 2382.72 1127.39 2382.05 1125.38 2381.4zM1060.92 1330.39l-2.11.95 6.22 13.75c.97-.44 1.91-.91 2.88-1.34.97-.44 1.94-.84 2.91-1.27l-6.22-13.75L1060.92 1330.39zM1850.88 1786.79L1850.88 1786.79c.12 1.06.28 2.1.39 3.15.12 1.06.2 2.11.31 3.17l15-1.67 0 0 0 0-.7-6.32L1850.88 1786.79C1850.88 1786.79 1850.88 1786.79 1850.88 1786.79zM969.89 1400.64l-8.87-12.06-5.12 3.76 8.89 12.09C966.48 1403.16 968.17 1401.88 969.89 1400.64zM1070.93 2360.51l-6.03 13.74 5.82 2.56v-.01l0 0 3.34-7.61 2.68-6.11 0 0 0 0C1074.79 2362.24 1072.86 2361.36 1070.93 2360.51z"/><polygon fill="#a0c5ff" points="838.45 2123.72 835.24 2118.23 802.02 2137.68 802.02 2137.68 802.02 2137.68 805.22 2143.16 805.23 2143.16 805.23 2143.16"/><path fill="#a0c5ff" d="M846.62 1523.94l-12.17-8.73-3.71 5.16 12.19 8.74C844.17 1527.39 845.38 1525.65 846.62 1523.94zM883.33 1478.6l-11.19-9.96-4.22 4.74 11.21 9.98C880.52 1481.77 881.91 1480.18 883.33 1478.6zM1114.48 1309.24L1114.48 1309.24 1114.48 1309.24l4.74 14.32c1.01-.34 2-.71 3.01-1.04 1.01-.34 2.02-.63 3.03-.96l-4.75-14.32L1114.48 1309.24zM768.61 2026.69c-.33-1.01-.63-2.02-.96-3.03l-14.32 4.75v0l0 0 2 6.03 14.32-4.74c0 0 0 0 0 0h0C769.3 2028.69 768.94 2027.7 768.61 2026.69zM789.82 2081.01c-.44-.97-.84-1.94-1.27-2.92l-13.75 6.22 2.62 5.79 13.75-6.22 0 0 0 0C790.72 2082.93 790.27 2081.98 789.82 2081.01zM924.57 1437.35l-10.08-11.07-4.7 4.28 10.11 11.09C921.44 1440.21 922.99 1438.77 924.57 1437.35zM1829.43 2017.49c-.63 2.03-1.3 4.03-1.95 6.05l0 0 0 0 14.29 4.55 1.93-6.05 0 0v-.01L1829.43 2017.49z"/><polygon fill="#a0c5ff" points="1762.84 2112.81 1759.69 2118.33 1793.15 2137.39 1793.15 2137.39 1793.15 2137.39 1794.61 2134.83 1796.29 2131.87 1796.29 2131.87 1796.29 2131.87"/><path fill="#a0c5ff" d="M1760.35 1514.94l-3.76-5.12-12.09 8.89c1.27 1.7 2.54 3.39 3.79 5.11L1760.35 1514.94zM1524.27 1326.04L1524.27 1326.04l-.66 1.5-5.35 12.21 0 0 0 0c1.94.84 3.87 1.71 5.81 2.57l6.02-13.74L1524.27 1326.04 1524.27 1326.04zM1178.69 2411.18l6.22 1.28 0 0h0l3.03-14.67c-2.08-.42-4.15-.87-6.22-1.31L1178.69 2411.18z"/><rect width="6.36" height="38.5" x="1573.6" y="2309.44" fill="#a0c5ff" transform="rotate(-30.334 1576.84 2328.855)"/><path fill="#a0c5ff" d="M1619.8 1396.86c1.73 1.22 3.46 2.44 5.18 3.69l8.73-12.17-5.16-3.7L1619.8 1396.86zM1665.55 1433.04c1.59 1.4 3.18 2.79 4.76 4.21l9.96-11.19-4.75-4.23L1665.55 1433.04zM1851.68 1909.59l14.93 1.48.63-6.33-14.91-1.48C1852.13 1905.37 1851.91 1907.48 1851.68 1909.59z"/><polygon fill="#a0c5ff" points="1831.2 1845.12 1831.2 1845.13 1831.23 1851.48 1831.23 1851.48 1869.73 1851.25 1869.73 1851.25 1869.69 1844.9 1869.69 1844.9"/><path fill="#a0c5ff" d="M1842.57 1967.2L1842.57 1967.2 1842.57 1967.2l14.69 3.03 1.29-6.22-14.67-3.03C1843.46 1963.06 1843.01 1965.12 1842.57 1967.2zM1806.58 2077.99l13.74 6.02 2.55-5.82-13.72-6.01C1808.32 2074.12 1807.45 2076.06 1806.58 2077.99z"/><polygon fill="#a0c5ff" points="1789.77 1559.68 1789.77 1559.68 1789.77 1559.68 1756.54 1579.12 1759.75 1584.61 1792.98 1565.16 1792.98 1565.16 1792.98 1565.16"/><path fill="#a0c5ff" d="M1803.83 1618.95C1803.83 1618.95 1803.83 1618.95 1803.83 1618.95L1803.83 1618.95c.44.97.91 1.91 1.34 2.88.43.97.84 1.94 1.27 2.91l13.75-6.22-2.62-5.79L1803.83 1618.95zM1707.27 1473.8c1.44 1.56 2.88 3.11 4.3 4.68l11.07-10.08-4.28-4.7L1707.27 1473.8zM1410.09 1290.37L1410.09 1290.37l-3.03 14.67c2.08.42 4.15.87 6.22 1.31l3.03-14.69L1410.09 1290.37 1410.09 1290.37zM1358.98 2405.19c-1.05.12-2.11.2-3.16.31l1.66 14.99 6.32-.7-1.67-14.99C1361.08 2404.92 1360.03 2405.08 1358.98 2405.19zM1529.97 2357.75c-.96.44-1.91.91-2.87 1.34-.97.44-1.95.84-2.92 1.27l6.22 13.75 2.22-1.01 3.57-1.61L1529.97 2357.75zM1239.33 2405.6C1239.33 2405.6 1239.33 2405.6 1239.33 2405.6l-1.48 14.93 6.32.63 1.48-14.9C1243.54 2406.06 1241.44 2405.82 1239.33 2405.6L1239.33 2405.6zM1416.53 2395.73c-1.04.23-2.08.42-3.12.64v0l0 0 3.22 14.74 6.21-1.36-3.22-14.74C1418.58 2395.25 1417.56 2395.5 1416.53 2395.73zM1463.57 1319.49L1463.57 1319.49 1463.57 1319.49c2.02.63 4.03 1.3 6.05 1.95l4.55-14.29-6.05-1.93L1463.57 1319.49zM1178.36 1291.73l-6.21 1.36 3.22 14.74c1.03-.24 2.05-.49 3.09-.72 1.04-.23 2.07-.42 3.11-.64v0l0 0L1178.36 1291.73zM1475.77 2379.27c-1.01.34-1.99.71-3 1.04-1.01.33-2.02.63-3.03.96l4.74 14.32 6.03-2v0l0 0L1475.77 2379.27zM1231.2 1283.04l1.66 14.99c1.05-.12 2.1-.27 3.15-.39 1.05-.12 2.11-.2 3.16-.31l-1.66-15L1231.2 1283.04zM1349.34 1296.58c2.11.2 4.22.43 6.32.65v0c0 0 0 0 .01 0l1.48-14.93-6.32-.63L1349.34 1296.58z"/><polygon fill="#a0c5ff" points="1558.9 1386.08 1564.42 1389.22 1568.68 1381.73 1583.47 1355.77 1577.95 1352.63"/><rect width="6.35" height="38.5" x="1297.55" y="2385.13" fill="#a0c5ff" transform="matrix(1 -.00574 .00574 1 -13.768 7.5)"/><rect width="6.36" height="38.5" x="1291.09" y="1279.21" fill="#a0c5ff" transform="matrix(1 -.0059 .0059 1 -7.645 7.665)"/><path fill="#5d74e4" d="M1338.3,1851.19c0.12,21.64-17.32,39.28-38.96,39.41c-21.64,0.13-39.29-17.31-39.41-38.95
			c-0.13-21.64,17.31-39.29,38.96-39.41C1320.53,1812.11,1338.17,1829.55,1338.3,1851.19z"/><g><polygon fill="#5d74e4" points="1563.24 1517.29 1299.33 1830.72 1320.57 1851.67 1631.15 1584.25 1647.14 1500.11"/><path fill="#a0c5ff" d="M1306.31,1881.09c10.49-2.13,19.38-9.97,22.16-21.05c3.87-15.38-5.46-30.99-20.84-34.86
				c-15.38-3.87-30.99,5.46-34.86,20.84c-2.84,11.28,1.47,22.65,10.02,29.45l-93.69,269.95l20.82,59.21l46.86-41.76L1306.31,1881.09
				z"/></g></g><g><path fill="#fececc" d="M2559.14,1695.99c0,0,226.44,518.53,0.34,558.7c-226.1,40.18-336.05-425.82-336.05-425.82L2559.14,1695.99z"/><path fill="#fececc" d="M1975.39,2469.95c25.49,14,447.42-65.57,633.01-235.75c185.6-170.18-160.65-279.34-283.42-206.11
			c-122.78,73.23-345.07,293.68-345.07,293.68S1895.91,2426.31,1975.39,2469.95z"/><path fill="#eab2b2" d="M2318.13 2385.33c-7.36-.64-14.78.73-21.93 2.36-9.58 2.18-18.96 4.79-28.75 5.94-23.46 2.76-47.13.47-70.64 2.3-11.65.9-22.86 3.13-34.02 6.57-9.32 2.87-18.49 6.2-27.77 9.17-18.47 5.9-38.51 11.27-57.99 7.79-9.28-1.66-18.6-5.42-25.62-11.85-5.75-5.27-9.06-12.24-9.92-19.95-1.75-15.65 4.42-31.32-.08-46.79-4.6-15.8-17.35-26.91-31.17-34.85-3.02-1.73-6.11-3.32-9.23-4.83-13.36 12.93-21.08 20.59-21.08 20.59s-84.01 104.54-4.52 148.18c15.82 8.68 184.26-18.66 354.18-81.32C2326.07 2386.81 2322.2 2385.69 2318.13 2385.33zM2603.82 1841.67c-8.94 35.03-32.82 63.38-64.62 80.25-30.89 16.39-65.8 18.99-100.11 19.94-12.58.35-25.2.32-37.76 1.25-6.65.49-13.35 1.22-19.85 2.81-5.03 1.23-10.58 2.95-14.35 6.69-7.33 7.28-5.12 17.79 2.99 23.13 8.5 5.6 19.39 7.45 29.26 9.03 15.25 2.45 30.62 4.65 45.65 8.25 18.19 4.34 37.87 11.27 51.05 25.2 10.26 10.83 14.82 25.3 14.23 40-.24 5.85-.61 12.12-2.76 17.63-.41 1.04-.88 2.2-1.68 3.02-.63.65-.56.57-1.02.55-2.26-.11-5.07-2.43-6.86-3.6-4.87-3.2-9.3-6.98-14.05-10.33-7.38-5.2-16.64-8.66-24.92-12.12-20.06-8.38-40.7-16.13-61.77-21.54-20.54-5.27-41.59-8.61-62.76-9.9-14.92-.91-29.87-.64-44.81-1.06-44.34-99.2-66.25-192-66.25-192l335.71-132.88c0 0 23.59 54.05 47.94 128.57C2606.29 1830.32 2605.26 1836.04 2603.82 1841.67z" opacity=".5"/><path fill="#1732ac" d="M2226.12,1060.76c0,0,509.27,601.1,403.67,744.59c-105.59,143.49-337.57,140.32-419.69,76.58
			C2127.98,1818.18,2047.37,965.74,2226.12,1060.76z"/><path fill="#000141" d="M2149.49,1377.8c14.41,40.07,31.46,79.32,52.16,116.57c9.62,17.31,20.05,34.19,31.5,50.35
			c10.43,14.72,22.09,28.24,33.93,41.82c9.54,10.95,18.57,22.32,23.98,35.95c6.76,17.05,8.41,36.3,6.64,54.43
			c-2.05,20.95-7.52,41.5-7.97,62.63c-0.22,10.37,0.77,20.81,3.82,30.76c2.42,7.9,6.7,15.31,11.12,22.25
			c19.1,29.98,48.08,53.39,78.57,71.05c15.34,8.88,31.47,16.49,48.2,22.35c13.3,4.66,27.28,8.63,41.37,9.88
			c12.29,1.09,24.69,1.01,37.09,0.55c-109.96,45.19-241.99,30.42-299.79-14.46c-48.71-37.81-94.21-354.26-85.86-585.65
			C2131.49,1323.8,2139.87,1351.03,2149.49,1377.8z" opacity=".1"/></g><g><path fill="#fececc" d="M505,1484.69c0,0,224.39,45.42,220.68,88.14c-1.74,19.98-78.79,11.3-138.53,1.59
				c72.61,14.53,134.25,35.37,122.33,55.33c-9.17,15.35-74.74,7.14-134.56-0.16c40.55,8.74,123.39,29.17,118.8,46.68
				c-7.8,29.7-91.1,13.1-147.1,0.67c32.83,9.67,117.3,34.15,113.27,50.21c-3.57,14.22-23.14,22.72-93.5,6.82
				c-41.06-9.28-41.53-1.12-59.37-9.01c-13.77-6.08-28.71-10.86-37.39-21.22C427.79,1653.87,470.34,1493.44,505,1484.69z"/><path fill="#e7f0fe" d="M653.65 1728.24c.59-7.76-21.57-18.43-24.24-17.67 0 0-5.23 19.29-4.62 22.98C625.39 1737.24 653.06 1736 653.65 1728.24zM688.04 1678.28c.6-7.76-21.58-18.43-24.25-17.68 0 0-5.22 19.29-4.61 22.98C659.79 1687.27 687.46 1686.04 688.04 1678.28zM704.11 1623.11c.59-7.76-21.58-18.44-24.24-17.68 0 0-5.23 19.29-4.61 22.98C675.86 1632.1 703.52 1630.86 704.11 1623.11zM718.62 1568.54c.6-7.76-21.57-18.43-24.24-17.67 0 0-5.23 19.29-4.62 22.98C690.36 1577.54 718.04 1576.3 718.62 1568.54z" opacity=".5"/><path fill="#eab2b2" d="M555.35,1679.45l-67.86-29.65c0,0-20.8,19.32-6.58,47.52c0,0-32.41-25.8-11.26-107.59
				c21.17-81.79,33.19-89.96,33.19-89.96s-6.43,25.48,7.3,44.21c3.06,4.19,75.98,29.92,71.31,28.83
				c-4.66-1.09-72.52-13.79-72.52-13.79l-8.7,34.68l65.57,32.4l-69.88-18.95l-6.21,29.87L555.35,1679.45z" opacity=".25"/></g><g><path fill="#fececc" d="M1997.43,2305.63c0,0-225.49-39.61-237.62,1.53c-5.67,19.23,69.23,39.27,128.4,52.04
				c-72.91-12.97-137.9-16.06-134.08,6.87c2.94,17.64,66.98,33.92,125.34,48.97c-40.94-6.66-125.53-17.88-127.64,0.1
				c-3.58,30.5,80.04,45.44,136.7,54.31c-34.09-2.98-121.67-11.02-123.78,5.4c-1.86,14.54,13.25,29.6,84.57,40.48
				c41.62,6.35,39.07,14.12,58.56,13.28c15.04-0.64,30.69,0.37,42.56-6.11C2007.57,2491.32,2026.51,2326.42,1997.43,2305.63z"/><path fill="#e7f0fe" d="M1770.14 2478.13c2.28-7.44 26.81-9.28 29.02-7.61 0 0-2.17 19.86-4.09 23.08C1793.17 2496.82 1767.86 2485.57 1770.14 2478.13zM1756.36 2419.06c2.28-7.44 26.81-9.28 29.03-7.61 0 0-2.18 19.87-4.1 23.08C1779.38 2437.74 1754.07 2426.49 1756.36 2419.06zM1761.53 2361.82c2.28-7.44 26.82-9.29 29.02-7.61 0 0-2.17 19.87-4.1 23.08C1784.55 2380.51 1759.25 2369.26 1761.53 2361.82zM1767.94 2305.73c2.28-7.44 26.81-9.28 29.02-7.6 0 0-2.17 19.87-4.09 23.08C1790.97 2324.42 1765.65 2313.16 1767.94 2305.73z" opacity=".5"/><path fill="#eab2b2" d="M1879.47,2468.58l74-2.84c0,0,12.31,25.58-11.22,46.64c0,0,39.6-12.19,49.75-96.06
				c10.15-83.87,1.93-95.87,1.93-95.87s-3.32,26.07-22.93,38.49c-4.38,2.78-81.66,0.13-76.92,0.82
				c4.73,0.69,72.55,13.63,72.55,13.63l-4.56,35.47l-72.87,6.24l71.97,7.86l-5.12,30.07L1879.47,2468.58z" opacity=".25"/></g><g><polygon fill="#5d74e4" points="2958.65 1106 2827.48 937.31 2513.61 485.68 2958.65 485.68"/><rect width="445.05" height="67.34" x="2466.14" y="472.91" fill="#5d74e4"/><path fill="#5d74e4" d="M2911.18,1117.02c0,0,23.74-43.26,47.47-11.02c0-28.49-47.47-252.14-47.47-252.14V1117.02z"/><rect width="445.05" height="576.77" x="2466.14" y="540.25" fill="#a0c5ff"/><polygon fill="#1732ac" points="2911.18 472.91 2909.2 540.25 2958.65 550.25 2958.65 485.68"/><path fill="#fff" d="M2911.18,540.25h-445.05c0,0,6.3,266.78-124.25,448.5c75.11,71.91,284.65,95.9,454.19,51.86
				C2856.47,1024.92,2911.18,540.25,2911.18,540.25z"/><path fill="#5d74e4" d="M2553.2 607.46h22.43v10.16h-22.43v20.04h-13.07v-50.09h37.68v10.16h-24.61V607.46zM2631.64 637.66h-14.23c-1.16-3.56-1.89-6.46-2.32-10.02-.65-5.52-2.83-8.71-6.17-8.93-1.45-.07-2.69-.07-4.14-.07h-2.91v19.02h-13.07v-50.09h19.89c3.12 0 5.15.07 7.84.36 7.26.87 13.58 4.43 13.58 13.29 0 6.32-3.41 10.53-10.09 12.48 5.23 1.89 7.11 5.74 7.84 11.76C2628.52 631.13 2629.68 634.69 2631.64 637.66zM2606.59 609.2c1.38 0 2.54 0 3.48-.07 3.34-.29 6.39-1.45 6.39-5.66 0-4.21-2.68-5.37-6.02-5.66-.95-.07-2.11-.07-3.49-.07h-5.08v11.47H2606.59zM2642.34 637.66v-50.09h13.07v50.09H2642.34zM2715.69 611.96c0 15.68-9.59 24.1-21.2 25.41-2.54.29-3.7.29-6.39.29h-18.95v-50.09h18.95c2.69 0 3.85 0 6.39.29C2706.1 589.16 2715.69 596.28 2715.69 611.96zM2702.04 612.18c0-8.93-4.5-13.72-11.04-14.3-1.67-.15-2.83-.15-4.72-.15h-4.07v29.76h4.07c1.89 0 3.05 0 4.72-.15C2697.53 626.77 2702.04 621.11 2702.04 612.18zM2738.81 624.67l-4.21 13h-13.87l18.08-50.09h15.97l18.08 50.09h-14.23l-4.21-13H2738.81zM2742 614.5h9.29l-4.65-15.39L2742 614.5zM2800.48 637.66h-13.07V618.5l-17.64-30.93h14.67l9.87 19.82 9.51-19.82h14.3l-17.64 30.93V637.66z"/><g><path fill="#000141" d="M2631.62 860.24v32.14h-122.81v-17.9l49.81-46.83c23.64-22.27 31.67-33.29 31.67-48.43 0-11.94-6.66-18.6-17.9-18.6-11.94 0-17.91 7.58-19.51 24.1l-.23 2.29h-41.32l.23-2.29c3.44-34.89 25.48-54.4 64.27-54.4 36.96 0 57.61 17.68 57.61 47.29 0 18.59-8.49 32.83-39.02 62.21l-21.12 20.43H2631.62zM2799.4 845.32c0 30.3-24.79 50.27-64.73 50.27-40.17 0-63.59-19.51-66.8-51.19l-.23-2.3h41.32l.46 2.3c2.3 11.02 10.1 20.89 23.65 20.89 14.23 0 23.18-8.03 23.18-18.82 0-13.55-9.87-20.43-26.4-21.12l-6.2-.23v-26.63l6.2-.46c15.15-1.15 22.72-9.41 22.72-20.2 0-10.33-6.2-16.76-17.67-16.76-12.17 0-17.22 9.87-18.14 20.2l-.23 2.3h-41.32l.23-2.3c2.75-26.63 22.5-50.5 63.59-50.5 38.8 0 56.7 19.74 56.7 42.24 0 18.59-9.41 30.99-30.07 36.04C2788.15 813.41 2799.4 824.89 2799.4 845.32z"/></g></g><g><path fill="#e7f0fe" d="M695.39,793.21c-48,0-87.06-39.05-87.06-87.06V500.79c0-48,39.05-87.06,87.06-87.06h750.86
				c48,0,87.06,39.05,87.06,87.06v205.36c0,48-39.05,87.06-87.06,87.06H695.39z"/><path fill="#fff" d="M695.39,432h750.86c37.99,0,68.79,30.8,68.79,68.79v205.36c0,37.99-30.8,68.79-68.79,68.79H695.39
				c-37.99,0-68.79-30.8-68.79-68.79V500.79C626.6,462.8,657.4,432,695.39,432z"/><path fill="#5d74e4" d="M626.6,548.98v-48.2c0-37.99,30.8-68.79,68.79-68.79h750.86c37.99,0,68.79,30.8,68.79,68.79v48.2H626.6z"/><path fill="#fff" d="M792.25 507.38L788 520.51h-14l18.25-50.58h16.13l18.26 50.58h-14.37l-4.25-13.12H792.25zM795.47 497.12h9.38l-4.69-15.54L795.47 497.12zM876.4 486.34c0 9.97-6.67 15.18-14 16.06-2.71.29-4.77.37-7.92.37h-5.86v17.74h-13.2v-50.58h19.06c3.15 0 5.21.07 7.92.37C869.73 471.17 876.4 476.37 876.4 486.34zM862.62 486.34c0-3.81-1.98-5.79-5.35-6.08-.95-.07-2.13-.07-3.52-.07h-5.13v12.32h5.13c1.39 0 2.57 0 3.52-.07C860.64 492.14 862.62 490.15 862.62 486.34zM927.65 486.34c0 9.97-6.67 15.18-14 16.06-2.71.29-4.77.37-7.92.37h-5.86v17.74h-13.2v-50.58h19.06c3.15 0 5.21.07 7.92.37C920.98 471.17 927.65 476.37 927.65 486.34zM913.87 486.34c0-3.81-1.98-5.79-5.35-6.08-.95-.07-2.13-.07-3.52-.07h-5.13v12.32H905c1.39 0 2.57 0 3.52-.07C911.89 492.14 913.87 490.15 913.87 486.34zM987.76 495.22c0 16.2-10.12 26.32-25.88 26.32s-25.88-10.12-25.88-26.32c0-16.27 10.12-26.32 25.88-26.32S987.76 478.94 987.76 495.22zM974.28 495.22c0-10.78-4.77-16.64-12.39-16.64-7.62 0-12.39 5.86-12.39 16.64 0 10.7 4.77 16.64 12.39 16.64C969.51 511.86 974.28 505.92 974.28 495.22zM999.72 520.51v-50.58h13.2v50.58H999.72zM1057.92 520.51l-18.4-33.43c.44 5.13.44 9.6.44 12.53v20.89h-13.19v-50.58h16.42l19.21 34.9c-.37-5.13-.44-10.34-.44-13.27v-21.63h13.2v50.58H1057.92zM1113.78 480.19v40.32h-13.19v-40.32h-16.42v-10.26h46.04v10.26H1113.78zM1197.21 520.51h-13.19v-21.26c0-4.4 0-10.92.15-16.06-.88 5.13-2.35 11.58-3.52 16.06l-5.57 21.26h-13.56l-5.65-21.26c-1.17-4.4-2.64-10.92-3.45-16.06.15 5.13.15 11.65.15 16.06v21.26h-13.2v-50.58h20.6l8.58 37.75 8.57-37.75h20.09V520.51zM1249.85 520.51h-38.78v-50.58h38.05v10.26h-24.85v9.82h23.38v10.26h-23.38v9.97h25.58V520.51zM1293.1 520.51l-18.4-33.43c.44 5.13.44 9.6.44 12.53v20.89h-13.2v-50.58h16.42l19.2 34.9c-.37-5.13-.44-10.34-.44-13.27v-21.63h13.2v50.58H1293.1zM1348.96 480.19v40.32h-13.2v-40.32h-16.42v-10.26h46.04v10.26H1348.96z"/><g><path fill="#a0c5ff" d="M808.53,595.78c-34.54,0-62.54,28-62.54,62.54c0,34.54,28,62.54,62.54,62.54c34.54,0,62.54-28,62.54-62.54
				C871.07,623.78,843.07,595.78,808.53,595.78z M808.53,710.57c-28.87,0-52.31-23.38-52.31-52.25s23.44-52.25,52.31-52.25
				c28.87,0,52.25,23.38,52.25,52.25S837.4,710.57,808.53,710.57z"/><path fill="#a0c5ff" d="M816.73,658.32c0,4.55-3.68,8.23-8.23,8.23s-8.24-3.68-8.24-8.23s3.69-8.23,8.24-8.23
				S816.73,653.77,816.73,658.32z"/><path fill="#a0c5ff" d="M808.5,614.02c-2.91,0-5.28,2.36-5.28,5.28v36.67c0,2.92,2.36,5.28,5.28,5.28c2.92,0,5.28-2.36,5.28-5.28
				V619.3C813.78,616.38,811.42,614.02,808.5,614.02z"/><path fill="#a0c5ff" d="M839.36,629.13c-2.06-2.06-5.4-2.06-7.46,0l-25.93,25.93c-2.06,2.06-2.06,5.4,0,7.46
				c2.06,2.06,5.4,2.06,7.46,0l25.93-25.93C841.43,634.53,841.43,631.19,839.36,629.13z"/></g><g><path fill="#a0c5ff" d="M1108.26 610.29H943.72c-4.05 0-7.8 2.77-8.45 6.76-.83 5.09 3.08 9.49 8.02 9.49h164.98c4.49 0 8.13-3.64 8.13-8.13v0C1116.39 613.93 1112.75 610.29 1108.26 610.29zM1422.51 610.29h-286.95c-4.49 0-8.13 3.64-8.13 8.13v0c0 4.49 3.64 8.13 8.13 8.13h287.39c4.94 0 8.84-4.4 8.02-9.49C1430.31 613.06 1426.56 610.29 1422.51 610.29zM1179.19 650.19H943.72c-4.05 0-7.8 2.77-8.45 6.76-.83 5.09 3.08 9.49 8.02 9.49h235.91c4.49 0 8.13-3.64 8.13-8.13l0 0C1187.32 653.83 1183.68 650.19 1179.19 650.19zM1179.19 690.09H943.72c-4.05 0-7.8 2.76-8.45 6.76-.83 5.09 3.08 9.49 8.02 9.49h235.91c4.49 0 8.13-3.64 8.13-8.13l0 0C1187.32 693.73 1183.68 690.09 1179.19 690.09zM1422.5 650.19h-216.02c-4.49 0-8.13 3.64-8.13 8.13l0 0c0 4.49 3.64 8.13 8.13 8.13h216.46c4.94 0 8.85-4.4 8.02-9.49C1430.31 652.96 1426.55 650.19 1422.5 650.19z"/></g></g></svg>