<svg xmlns="http://www.w3.org/2000/svg" xmlns:xlink="http://www.w3.org/1999/xlink" data-name="Layer 1" viewBox="0 0 509.34 478.33"><defs><linearGradient id="a" x1="260.82" x2="-265.13" y1="233.23" y2="-1.03" gradientUnits="userSpaceOnUse"><stop offset="0" stop-opacity="0"/><stop offset=".97"/></linearGradient><linearGradient id="d" x1="422.37" x2="-103.59" y1="233.23" y2="-1.03" xlink:href="#a"/><linearGradient id="e" x1="583.91" x2="57.96" y1="233.23" y2="-1.03" xlink:href="#a"/><linearGradient id="f" x1="403.43" x2="415.44" y1="558.9" y2="385.82" xlink:href="#a"/><linearGradient id="g" x1="124.82" x2="123.13" y1="223.17" y2="413.51" xlink:href="#a"/><linearGradient id="h" x1="125.16" x2="113.33" y1="406.89" y2="-339.81" xlink:href="#a"/><linearGradient id="i" x1="292.8" x2="280.98" y1="404.23" y2="-342.47" xlink:href="#a"/><linearGradient id="j" x1="294.71" x2="282.89" y1="404.2" y2="-342.5" xlink:href="#a"/><linearGradient id="k" x1="288.09" x2="276.26" y1="404.3" y2="-342.39" xlink:href="#a"/><linearGradient id="l" x1="426.31" x2="414.48" y1="402.12" y2="-344.58" xlink:href="#a"/><linearGradient id="m" x1="457.91" x2="446.08" y1="401.62" y2="-345.08" xlink:href="#a"/><linearGradient id="n" x1="454.9" x2="443.07" y1="401.66" y2="-345.03" xlink:href="#a"/><linearGradient id="o" x1="205.57" x2="204.44" y1="191.16" y2="330.81" xlink:href="#a"/><linearGradient id="p" x1="364.13" x2="363" y1="192.44" y2="332.09" xlink:href="#a"/><linearGradient id="b" x1="335.89" x2="352.2" y1="351.51" y2="351.51" gradientUnits="userSpaceOnUse"><stop offset="0" stop-color="#ecc4d7"/><stop offset=".42" stop-color="#efd4d1"/><stop offset="1" stop-color="#f2eac9"/></linearGradient><linearGradient id="q" x1="472.5" x2="482.11" y1="353.06" y2="353.06" xlink:href="#b"/><linearGradient id="r" x1="402.77" x2="430.46" y1="334.56" y2="334.56" xlink:href="#b"/><linearGradient id="s" x1="367.34" x2="373.73" y1="465.04" y2="465.04" xlink:href="#b"/><linearGradient id="t" x1="384.8" x2="391.18" y1="465.04" y2="465.04" xlink:href="#b"/><linearGradient id="u" x1="380.89" x2="434.86" y1="452.86" y2="303.9" xlink:href="#a"/><linearGradient id="v" x1="456.4" x2="435.42" y1="372.18" y2="440.88" xlink:href="#a"/><linearGradient id="c" x1="377.79" x2="402.59" y1="347.65" y2="387.84" gradientUnits="userSpaceOnUse"><stop offset="0" stop-color="#fff" stop-opacity="0"/><stop offset=".09" stop-color="#fff" stop-opacity=".03"/><stop offset=".22" stop-color="#fff" stop-opacity=".11"/><stop offset=".38" stop-color="#fff" stop-opacity=".25"/><stop offset=".56" stop-color="#fff" stop-opacity=".43"/><stop offset=".76" stop-color="#fff" stop-opacity=".67"/><stop offset=".97" stop-color="#fff" stop-opacity=".96"/><stop offset="1" stop-color="#fff"/></linearGradient><linearGradient id="w" x1="474.41" x2="448.88" y1="367.56" y2="370.51" xlink:href="#c"/><linearGradient id="x" x1="414.88" x2="367.2" y1="491.65" y2="492.78" xlink:href="#a"/><linearGradient id="y" x1="430.9" x2="393.94" y1="505.21" y2="506.08" xlink:href="#a"/></defs><ellipse cx="377.36" cy="472.51" fill="#68e1fd" opacity=".25" rx="69.31" ry="5.82"/><rect width="509.34" height="315.07" fill="#68e1fd" opacity=".25" rx="27.6"/><path fill="#68e1fd" d="M119.55 299.02c39.89 1.75 80.83-2.81 119 8.85 13.85 4.22 27.78 11.17 35.42 23.47 7.5 12.07 8.8 28.84 20.78 36.48 6.31 4 14.39 4.51 20.62 8.65 9.2 6.12 11.92 18.55 11.16 29.58s-4.2 21.81-4 32.86c.15 10.57 4 21.51 12.26 28.13s21.2 7.67 29.2.76c7.07-6.12 8.76-16.43 8.41-25.78s-2.27-18.78-.53-28c2.34-12.37 11.13-23.26 11.21-35.85 0-6.64-2.4-13-3.78-19.52-5.33-24.91 6.25-52.56 27.74-66.25 13-8.25 28.71-11.62 41.05-20.77 8.95-6.64 15.54-15.89 22-25 4.6-6.49 9.36-13.42 10-21.36.73-9.8-5-18.8-10.77-26.77a485.7 485.7 0 0 0-37.67-46 6.44 6.44 0 0 0-7.72-2.45c-18.62 3.77-38.74 8.9-50.24 24-15.77 20.72-8.58 50.22-13.67 75.75a77.62 77.62 0 0 1-14.17 31.53c-3.27 4.31-7.44 8.53-12.8 9.28-8.83 1.23-16-7.43-18.75-15.91s-3.26-17.93-8.32-25.27c-7.28-10.59-21.6-13.46-34.44-13.68-22.36-.37-45.21 4.9-63.63 17.57-1.39 1-2.84 2.08-3.3 3.71-.41 1.45.07 3-.23 4.5-.64 3.14-4.28 4.51-7.38 5.34-10.82 2.89-23.88 5.26-32-2.49-4-3.86-5.88-9.54-9.84-13.46-6-6-15.43-6.56-23.92-6.64-17.74-.17-73.25-8.81-76.51 16.68-3.95 30.43 44.49 37.17 64.82 38.06Z" opacity=".25"/><path fill="url(#a)" d="M50.12 64.2H158.8v198.78H50.12z"/><path fill="url(#d)" d="M211.66 64.2h108.68v198.78H211.66z"/><path fill="url(#e)" d="M373.21 64.2h108.68v198.78H373.21z"/><path fill="#68e1fd" d="M362.32 366.52a2.05 2.05 0 0 0-1.85 2v17.73c-.05 6.1 4.52 63.49 5.42 74.69a2.06 2.06 0 0 0 2.05 1.9h5a2 2 0 0 0 2-1.84l7.16-65.05a2 2 0 0 1 1.56-1.78 2.05 2.05 0 0 1 2.54 2.08l-2.54 64.44a2.07 2.07 0 0 0 2.06 2.15h5.53a2.05 2.05 0 0 0 2-1.74c1.68-10.72 10.59-67.67 11.27-71.75.61-3.64.47-19.24.4-25.12a2.07 2.07 0 0 0-2.28-2Z"/><path fill="url(#f)" d="M432.58 466.79c-.68 4.08-9.59 61-11.27 71.75a2.05 2.05 0 0 1-2 1.74h-5.53a2.07 2.07 0 0 1-2.06-2.15l2.54-64.44a2 2 0 0 0-2.05-2.14 2.12 2.12 0 0 0-.49.06 2 2 0 0 0-1.56 1.78L403 538.44a2 2 0 0 1-1.27 1.69 2 2 0 0 1-.77.15h-5a2.06 2.06 0 0 1-2.05-1.9c-.9-11.2-5.47-68.59-5.42-74.69.05-4.87 0-12.91 0-17V446a2.05 2.05 0 0 1 1.85-2l40.4-4.26a2.07 2.07 0 0 1 2.28 2c.03 5.81.17 21.41-.44 25.05Z" transform="translate(-27.98 -77.39)"/><path fill="#68e1fd" d="M37.82 54.83h114.84v201.85H37.82zM199.91 54.83h114.84v201.85H199.91zM361.99 54.83h114.84v201.85H361.99z"/><path fill="url(#g)" d="M162.4 262c-.64 6.87-.88 15.52-3.49 21.94-2.36 5.82-10.71 4.22-15.73 4.3q-13.11.22-26.21-.24-6.31-.22-12.61-.6c-3.66-.23-7.41 0-10.7-1.62a3.4 3.4 0 0 1-2.38-1.31c-2.39-3.21-2.06-7.91-2.23-11.79a44.11 44.11 0 0 1 1-12.61 1.4 1.4 0 0 1 2.67 0c1 4.19 1.53 8.43 2.33 12.67.4 2.08 1.06 4.11 1.41 6.15 2.89-.33 6 .29 8.85.48q5.82.39 11.64.63 11.64.5 23.3.47c2.27 0 4.53 0 6.8-.05 1.12 0 3.26.31 4.71.16-.35-.36.54-2.06.76-3.16.37-1.81.7-3.63 1-5.45q1-5.87 1.5-11.8c.16-1.77 1.09-5.72.83-8.17-2.23-.09-4.93.65-6.88.83l-8.69.81q-8.69.82-17.37 1.74-9.16 1-18.32 1.82c-5.75.53-11.64.17-17.33.79-1.8.19-2.19-2.86-.42-3.15 8.84-1.46 17.52-3.94 26.48-5.19 8-1.12 16-2 24.06-2.93 3.86-.43 7.73-.87 11.59-1.26 3.24-.33 7.57-1.65 10.72-.3 5.71 2.44 3.15 12.16 2.71 16.84Z" transform="translate(-27.98 -77.39)"/><path fill="url(#h)" d="M105.74 180.89a60.89 60.89 0 0 0 8.34 9.29c-6.72 6.38-13.87 13.87-16.81 22.46-1.38 4 4.26 5.77 6.43 2.71 3.06-4.31 5.43-9 8.81-13.11 2.14-2.61 4.43-5.09 6.79-7.51 7.7 6.39 15.82 12.24 22.3 20 3.42 4.09 9.33-1.82 5.87-5.87-6.57-7.68-14.92-13.25-22.81-19.41 7.26-7 14.59-13.89 20.93-21.8 1.88-2.34-1.22-5.67-3.38-3.37-7.06 7.5-15.09 14-22.72 20.91a83.44 83.44 0 0 1-10.3-10.79c-3.31-4.15-6.68-8.13-11.17-11.05-2-1.27-4.28 1.69-2.51 3.26 4.49 3.99 6.78 9.45 10.23 14.28Z" transform="translate(-27.98 -77.39)"/><path fill="url(#i)" d="M261.68 192.15c7.74-3.4 13.34-11 19.87-16.17l3-2.37c2.63 2.07 5.24 4.18 7.92 6.23a105.44 105.44 0 0 0 12.66 8.48c4.49 2.51 10.13 6.19 15.4 5.16 2.46-.48 2.72-3.53 1.36-5.15-1.83-2.16-3.68-2.54-6.29-3.6a77.12 77.12 0 0 1-9-4.41c-4.54-2.59-8.77-5.65-13.07-8.6l-3.53-2.43c1.11-.87 2.22-1.74 3.31-2.63 2-1.6 4-3.18 6-4.85 1.23-1.05 5-5.58 6.62-5.17a1.44 1.44 0 0 0 .77-2.78c-3.79-1-6.46 1.59-9.55 3.58-4.16 2.67-8.18 5.56-12.2 8.45a92.85 92.85 0 0 0-18.14-9.61c-2.61-1-4.49 3.38-1.92 4.54a77.23 77.23 0 0 1 14.68 8.93c-3.09 2.2-6.16 4.44-9.06 6.88-4 3.4-7.56 7.07-12.47 9.22-4.33 1.89-.62 8.15 3.64 6.3Z" transform="translate(-27.98 -77.39)"/><path fill="url(#j)" d="M329 214.74a544.35 544.35 0 0 0-69.36 3.34 4 4 0 0 0-7.44 1.92c-.31 6.18-.24 12.4-.32 18.6 0 3.66-1.08 8.75 2.73 10.89s10.68.37 14.93.09q9.61-.63 19.22-1.51c11.62-1.08 24-1.81 35.36-4.39 3.84-.87 5.33-3.2 5.84-7 .83-6.24 1.48-12.51 2.23-18.77.2-1.73-1.63-3.15-3.19-3.17ZM324 232c-.35 2.69.4 4.83-2.68 5.35-2.52.42-5.11.58-7.65.86-8.93 1-17.88 1.71-26.83 2.43q-6.73.54-13.46 1c-2.56.16-5.12.3-7.69.44-1.7.09-4.24-.31-5.77.28h-.21v-1.85l.12-5.58c.09-4.29.26-8.6.25-12.89 21.7-1.21 43.58-1.47 65.31-1q-.68 5.46-1.39 10.96Z" transform="translate(-27.98 -77.39)"/><path fill="url(#k)" d="M318.76 268.22c-11.6-.08-23.24 0-34.83.53-9.17.43-19.09.33-27.77 3.73-1.79-1.77-5.29-.35-5.67 2.5-1.1 8.25.33 17.19.88 25.48.13 2 1.69 4.08 3.91 3.91 16.89-1.37 34.08-3.74 51-3.31 3 .08 7.26 1.29 10.09.22 2.57-1 3.1-3.41 3.64-5.84a94.92 94.92 0 0 0 2-23.95 3.33 3.33 0 0 0-3.25-3.27Zm-5.17 25.44-.23 1h-.28c-1-.67-3.52-.34-4.82-.42-3.55-.22-7.11-.24-10.66-.17-12.86.27-25.72 1.34-38.56 2.2-.19-6.75-.22-13.78-1.57-20.31 9.26-2.46 19.95-1.16 29.36-1.29 9.57-.13 19.14-.11 28.71 0 0 2.46-.07 4.93-.26 7.4-.28 3.93-1.5 7.78-1.69 11.59Z" transform="translate(-27.98 -77.39)"/><path fill="url(#l)" d="M430.94 201.48c3.11.39 6.6 1.23 9.62-.08 5.69-2.48 4.62-9.48 4.62-14.54 0-8.49.07-17 0-25.47-.05-6.4-2.5-8.62-8.86-7.66a66.32 66.32 0 0 1-25-1 3.62 3.62 0 0 0-3.89 1.45 1.91 1.91 0 0 0-1.95.66c-4 5.47-3.94 12.21-4.41 18.72-.29 4.13-.41 8.26-.48 12.4-.06 2.84-.91 7.18.7 9.81 1.2 1.95 3.44 2.21 5.49 2.54 4.18.68 8.38 1.21 12.59 1.74Zm-23.45-10.19c-1.05-5.59-.23-12.22-.4-17.76-.14-4.73-.58-9.78.48-14.45a3.59 3.59 0 0 0 1.71.9 79.9 79.9 0 0 0 15.39 2.07c4.31.13 8.53-.65 12.77-.94a1.34 1.34 0 0 1 0 .28v22.53c0 2.45.78 6.55 0 8.82-.39 1.16.17 1.14-1.21 1.67-.76.29-2.59-.28-3.39-.38-2.9-.35-5.8-.72-8.7-1.09s-5.8-.74-8.7-1.09c-1.85-.22-5.58.03-7.95-.56Z" transform="translate(-27.98 -77.39)"/><path fill="url(#m)" d="M420.57 219.61c-.63.06-1.26.09-1.88.15a2.2 2.2 0 0 0 0 4.4h.43a62 62 0 0 0 0 8.4c.09 2.64.1 5.31 2.81 6.65s6.59.79 9.52.91l12.6.51 26.18 1.07c4.2.18 8.4.38 12.6.51 2.7.09 5.65.31 7.75-1.76 3.05-3 4.15-13.3 1.91-16.83-1.47-2.33-4.24-2.33-6.67-2.58-4.58-.48-9.18-.84-13.78-1.17a346 346 0 0 0-47.43-.6 3.2 3.2 0 0 0-4.04.34Zm32.72 6c5.6.3 11.19.71 16.78 1.16 2.63.21 5.25.44 7.88.68 1.91.19 5.69 0 8.13.58.18 2.33.06 6-1 6.75s-6.49-.21-8-.28l-18.42-.83-17.46-.79-8.72-.4-3.88-.18c-.3 0-1.15-.13-1.94-.22-.19-2.51.12-5.06-.05-7.57 8.85.37 17.77.62 26.68 1.1Z" transform="translate(-27.98 -77.39)"/><path fill="url(#n)" d="M484.74 256.4c-7.59-.53-15.28-.49-22.88-.6-14.83-.22-29.56.11-44.25 2.18-1.35.19-1.52 1.5-1 2.45a1.67 1.67 0 0 0-.08.2c-1 3-1 6.21-1.72 9.31a4.07 4.07 0 0 0 3.87 5.08q22.44-.19 44.86.6c6.32.24 13.64 1.6 19.88.59 6-1 6.6-7 7.25-12.09.64-4.89-1.05-7.38-5.93-7.72Zm-3 12.13c-1.6.93-6.46-.21-8.4-.32-6.17-.36-12.35-.59-18.52-.78q-15.61-.48-31.23-.44a15.62 15.62 0 0 0-.1-5.15c9.81.64 19.6.77 29.45 1 5.64.12 11.28.16 16.92.29l7.95.21 5 .16.7.07c-.24 2.05-.73 4.33-1.81 4.96Z" transform="translate(-27.98 -77.39)"/><path fill="url(#o)" d="M215.07 225.87a97.09 97.09 0 0 0-10.41-4.81 3.17 3.17 0 0 0-3.16.83 3.55 3.55 0 0 0-.7 1.06l-.13.37a3.13 3.13 0 0 0 .83 3.16 36 36 0 0 0 3.58 2.4l-1 .05c-3.68.17-7.6.22-11.14 1.3-3.2 1-3.39 5.79 0 6.68 3.59.94 7.45.87 11.14.89h1a29.43 29.43 0 0 0-3.44 4.48c-2.46 4.17 2.94 7.63 6.32 4.88 2.79-2.27 4.95-5.41 7.26-8.15 1.78-2.11 4.63-4.42 4.67-7.42s-2.38-4.45-4.82-5.72Z" transform="translate(-27.98 -77.39)"/><path fill="url(#p)" d="M376.22 225.78a42.9 42.9 0 0 0-10.11-4.78c-1.78-.49-5.38.05-5.19 2.69.14 2 1.55 3.57 3.39 4.86-1.76.19-3.53.3-5.31.32-2.52 0-5.33-.08-7.7.87a2.75 2.75 0 0 0-.65 4.94c3.53 2.48 8.59 2.49 13.26 2-1.43 1.89-3 3.76-2.93 6.22 0 2.22 2.33 4.32 4.61 3.51 2.87-1 4.05-3.47 5.73-5.86 2.14-3.05 4.27-6.1 6.37-9.18a4.14 4.14 0 0 0-1.47-5.59Z" transform="translate(-27.98 -77.39)"/><path fill="url(#b)" d="M346.12 351c-.95.09-1.66-.81-2.22-1.59a33.07 33.07 0 0 0-5.57-6.07 8.17 8.17 0 0 0 1.9 5.26l-1.7-3.56c-.18-.38-.51-.82-.91-.69s-.39.49-.41.81a7.2 7.2 0 0 0 1.68 5.05l-1.13-2.65c-.17-.39-.42-.84-.85-.85s-.77.66-.78 1.18a5.84 5.84 0 0 0 2.22 4.67 3.35 3.35 0 0 0-2.4-1.94c-.32 1.26.64 2.48 1.61 3.36 2.91 2.68 12.86 9.79 14.55 2.47.44-1.89-.87-2.94-2-4.29-1.68-2.08-1.89-5.16-3.68-7-.09.42-.75 5.89-.31 5.84Z" transform="translate(-27.98 -77.39)"/><path fill="url(#q)" d="M472.8 347.52h.95q.39 1.91.63 3.84c.08.71.36 1.64 1.08 1.64a1.33 1.33 0 0 0 1-.73c1.42-2.1 1.58-4.76 1.81-7.28 0-.39.21-.9.6-.85s.42.44.45.76a27.73 27.73 0 0 1 0 5.39 9.09 9.09 0 0 1 .71-4.31c.41-.06.61.48.65.89a13.38 13.38 0 0 1-.38 4.59 16.38 16.38 0 0 1 .62-2.86c.09-.29.31-.64.6-.55s.27.33.29.54a10.45 10.45 0 0 1-.7 4.92 8.8 8.8 0 0 1 .58-2.31c.18-.09.34.18.36.39a6.58 6.58 0 0 1-1 3.5c-1.54 3-6 10.94-8.2 4.3-.49-1.47-.43-11.87-.05-11.87Z" transform="translate(-27.98 -77.39)"/><path fill="url(#r)" d="M412.11 313.69s-8 8.85-9.21 18.23 6.58 11.51 7.38 12.23 0 8.91 0 8.91 16.44 4.51 14.61 1.88c-3.76-5.38 2.3-12.1 2.3-12.1s13.72-33.11-15.08-29.15Z" transform="translate(-27.98 -77.39)"/><path fill="#25233a" d="M382.64 225.85a12.74 12.74 0 0 1 9-8.9 14.52 14.52 0 0 0-2.05 5.87 9.18 9.18 0 0 1 5.7-5.5 16 16 0 0 1 8.1-.46 13.88 13.88 0 0 0-4.08 2.64l5.85-1c-1.29.06-2.09 1.58-1.87 2.84a6 6 0 0 0 2.11 3.15c2.49 2.29 5.38 4.14 7.78 6.53s4.37 5.51 4.31 8.9c-.05 3.2-1.91 6.15-4.31 8.27a3.81 3.81 0 0 0-1.12 1.31 4.93 4.93 0 0 0-.19 1.63c-.15 3.29-3 5.72-5.78 7.52s-5.84 3.66-6.88 6.78a6.72 6.72 0 0 1-2.93-4.77 4.32 4.32 0 0 0-2.54 2.13 5.86 5.86 0 0 1-1.2-3.65 6.61 6.61 0 0 0-2.52 2l.1-9.07c.94 1.6 3.43.72 4.79-.53 1.51-1.4 2.83-3.6 1.87-5.42-.87-1.63-3.25-1.93-4.9-1.08a9.66 9.66 0 0 0-3.62 4.11c-1.05-1.38-.33-3.37.56-4.86s1.94-3 1.43-4.71c-6.64 1.27-8.87-8.97-7.61-13.73Z"/><path fill="#68e1fd" d="m447.96 284.61-.3.61c-2.32 4.66-17.42 34.56-23.91 35.6-7 1.12-15.77-8.26-15.77-8.26v.94l-.89 42.25a11.26 11.26 0 0 1-10.51 11l-26.49 1.79-3.56.24a8.39 8.39 0 0 1-8.91-9.1l4.4-49.45s-9.81 12-17.92 9.81-24.78-37.76-24.78-37.76l4.84-3.21 21.86 20.23s1.41-1.13 9-12.95 18.3-13.24 22-14.08a20.25 20.25 0 0 1 5.29.2c8 .94 21.75 3.85 25.4 5.08 4.79 1.63 9 18.65 13.52 21.75s20.08-17.95 20.54-18.57l2.71 1.69Z"/><path fill="url(#s)" d="M367.35 462.89v4.31l6-.47.38-3.84h-6.38z"/><path fill="url(#t)" d="M384.8 462.89v4.31l6.01-.47.37-3.84h-6.38z"/><path fill="#25233a" d="M373.92 464.97a8.87 8.87 0 0 1-5.1 1.59 1.8 1.8 0 0 1-1-.22c-.3-.2-.48-.56-.79-.75a1.91 1.91 0 0 0-1.68.16l-4.1 1.79a9.46 9.46 0 0 0-4.29 2.93 2.78 2.78 0 0 0-.55 1.63 3.12 3.12 0 0 0 1.5 2.25 10 10 0 0 0 5.93 1.64 29.47 29.47 0 0 0 6.18-.91 5.37 5.37 0 0 0 2.84-1.25 4.38 4.38 0 0 0 1-2.19c.25-1.19.23-2.4.46-3.58.03-.25-.04-3.35-.4-3.09ZM389.24 467.11c.57-.17 1.31-2.07 1.9-2.15 1.2-.16 2.33 1.16 3.35 1.82a17.78 17.78 0 0 1 4.45 3.58c1 1.22 1.54 3.11.48 4.23-.75.79-4.16.84-3.07.83h-6a22.85 22.85 0 0 1-3.19-.33c-4.65-.68-3.05-5.18-3.17-7.51-.27-4.73 2.62.31 5.25-.47Z"/><path fill="url(#u)" d="M396 437.23a14.11 14.11 0 0 0 2.06 8.67l-3.56.24a8.39 8.39 0 0 1-8.91-9.1l4.41-49.42c.63-4 9.22-10.43 9-7.18-1.61 24.97-2.78 53.04-3 56.79Z" transform="translate(-27.98 -77.39)"/><path fill="url(#v)" d="M475.64 362.58c-2.32 4.66-17.42 34.56-23.91 35.6-7 1.12-15.77-8.26-15.77-8.26v.94a16.59 16.59 0 0 1 .61-7.1c.18-.6.52-1.29 1.15-1.33s.89.37 1.23.73a30.09 30.09 0 0 0 8 6.14 8.05 8.05 0 0 0 3.9 1.14c1.8-.08 3.37-1.19 4.82-2.27a20.23 20.23 0 0 0 3.4-2.92c2-2.36 2.88-5.49 4-8.39 2-5 5.05-9.45 8.13-13.84a3.82 3.82 0 0 1 1.72-1.59 2.43 2.43 0 0 1 2.72 1.15Z" transform="translate(-27.98 -77.39)"/><path fill="url(#c)" d="M410.28 349.86a92.59 92.59 0 0 0-11.29 5.9c-6.53 3.95-21 25.72-25 26.28s-21.91-25.58-21.91-25.58L374 376.69s1.41-1.13 9-12.95 18.3-13.24 22-14.08a20.25 20.25 0 0 1 5.28.2Z" transform="translate(-27.98 -77.39)"/><path fill="url(#w)" d="M472.46 359.8s-6.41 12.56-13 18.31a7 7 0 0 1-10.16-1.33l-.06-.09c4.43 3.05 20.08-17.95 20.54-18.57Z" transform="translate(-27.98 -77.39)"/><path fill="url(#x)" d="M401.71 540.28h-5.8a2.06 2.06 0 0 1-2.05-1.9c-.9-11.2-5.47-68.59-5.42-74.69.05-4.87 0-12.91 0-17l1.85-2.77 7.75 2s-1.78 24.58 0 35.06c1.72 10.14 3.54 56.23 3.65 59.17.02.08.02.13.02.13Z" transform="translate(-27.98 -77.39)"/><path fill="url(#y)" d="M416 540.28h-2.22a2.07 2.07 0 0 1-2.06-2.15l2.54-64.44a2 2 0 0 0-2.05-2.14c2.05-1.84 6 0 6.82 7.42 1.6 15.61-3.03 61.31-3.03 61.31Z" transform="translate(-27.98 -77.39)"/></svg>